<?xml version="1.0" encoding="UTF-8"?>
<!DOCTYPE svg PUBLIC "-//W3C//DTD SVG 1.1//EN" "http://www.w3.org/Graphics/SVG/1.1/DTD/svg11.dtd">
<!-- Creator: CorelDRAW X7 -->
<svg xmlns="http://www.w3.org/2000/svg" xml:space="preserve" width="281.207mm" height="100.896mm" version="1.1" style="shape-rendering:geometricPrecision; text-rendering:geometricPrecision; image-rendering:optimizeQuality; fill-rule:evenodd; clip-rule:evenodd"
viewBox="0 0 5750 2063"
 xmlns:xlink="http://www.w3.org/1999/xlink">
 <defs>
  <style type="text/css">
   <![CDATA[
    .str0 {stroke:#2B2A29;stroke-width:4.08957}
    .fil2 {fill:none}
    .fil1 {fill:#FEFEFE}
    .fil0 {fill:#272444}
   ]]>
  </style>
 </defs>
 <g id="Layer_x0020_1">
  <metadata id="CorelCorpID_0Corel-Layer"/>
  <g id="_2188165829456">
   <polygon class="fil0 str0" points="2,2 5748,2 5748,2061 2,2061 "/>
   <path class="fil1" d="M809 838c-21,28 -33,50 -36,66 -3,25 4,56 22,94l11 24 155 328 -63 30 -336 -258 95 201 8 17 29 52c17,22 37,35 60,39l4 1c-39,5 -73,-24 -102,-86l-17 -35 -95 -203 -39 -30 101 214c32,68 58,111 76,128 19,17 47,22 85,16l48 20 -201 94 -11 -7 186 -87 -29 -12 -173 82c25,-25 39,-49 40,-72 1,-23 -9,-57 -30,-102l-140 -297 -69 -19 188 -88 -36 60 345 267 -21 -45 -296 -228 36 -60 10 4 -31 53 272 211 -82 -174 -9 -19c-21,-44 -38,-71 -52,-82 -13,-11 -37,-17 -72,-17l169 -80zm26 22l-1 14c-17,13 -26,28 -27,43 -2,15 5,37 18,66l180 383 -79 38 -10 -8 75 -35 -174 -370c-17,-35 -24,-61 -21,-79 2,-18 16,-36 39,-52zm453 -54l-8 -2c-29,-8 -54,-10 -75,-5 -70,17 -89,94 -57,232 24,101 62,163 112,185l-2 5c-31,-13 -56,-33 -74,-61 -19,-28 -34,-69 -47,-121 -34,-148 -13,-231 65,-250 35,-8 64,-2 86,17zm-108 -74c65,-15 123,-2 173,37 51,40 85,101 105,183 18,78 13,144 -14,199 -28,56 -74,91 -139,106 -51,12 -100,6 -147,-17 -70,-34 -116,-98 -138,-193 -19,-80 -14,-149 15,-206 29,-56 78,-93 145,-109zm8 35c-90,21 -117,111 -80,269 34,146 96,208 185,187 42,-9 69,-36 82,-80 12,-44 10,-103 -8,-177 -19,-85 -44,-141 -72,-169 -30,-30 -66,-40 -107,-30zm125 -45c42,10 80,34 112,74 33,39 56,88 70,146 20,86 15,161 -17,224 -31,63 -82,103 -153,119 -45,11 -91,5 -138,-16l-1 -2c39,17 84,19 133,7 68,-15 117,-54 148,-114 31,-60 37,-130 19,-208 -14,-59 -36,-108 -65,-147 -30,-39 -66,-65 -107,-78l-1 -5zm226 -5c58,-51 128,-83 208,-94 58,-8 107,-1 148,20 40,21 64,52 69,94 8,55 -19,97 -80,124l0 5c7,0 15,1 25,3 29,-11 51,-29 65,-53 15,-24 20,-52 15,-82 -5,-39 -26,-71 -62,-96l0 -3 5 3c39,23 62,55 68,98 8,59 -17,105 -75,137 28,9 51,23 69,43 18,21 29,45 33,74 5,40 -5,74 -31,103 -26,28 -63,46 -112,52l-291 41 50 -56 -25 -176c-16,2 -34,6 -55,12l-5 -11c24,-6 43,-10 59,-12l-3 -21 -10 1c-16,2 -35,6 -57,11l12 -41 7 -1c10,-1 18,-1 24,-2 8,-1 14,-2 19,-1l-21 -154 -49 -18zm126 -24l26 184c3,-1 5,-1 6,-1l7 0c1,-1 3,-1 7,-2l-23 -166c21,-15 44,-23 66,-26 25,-4 46,-2 62,5 16,8 31,22 44,43l-12 -5c-25,-29 -56,-40 -94,-35 -21,3 -39,12 -54,26l22 157 17 -2c52,-7 89,-21 112,-42 23,-21 32,-49 27,-85 -4,-31 -18,-54 -42,-71 -24,-16 -53,-22 -87,-17 -30,4 -58,17 -84,37zm30 218l32 224 20 -3 -28 -200c19,-4 33,-6 41,-7 45,-7 78,-7 100,-1 21,5 39,19 54,41l-5 1c-15,-17 -34,-28 -55,-32 -21,-5 -51,-4 -90,1l-33 5 26 191 13 -2 59 -10c76,-16 109,-59 99,-128 -6,-43 -22,-71 -50,-83 -27,-12 -75,-14 -144,-4 -7,1 -20,3 -39,7zm309 -14c32,18 52,50 58,96 6,46 -5,87 -33,121 -27,34 -72,55 -133,64l-276 38 -9 -10 257 -35c56,-8 96,-20 119,-34 51,-34 72,-82 64,-145 -5,-35 -22,-65 -52,-91l5 -4zm97 -308l196 -12 -54 60 27 438 4 0 14 1 4 -1 -27 -436 41 -47 7 9 -38 43 27 431c13,0 24,0 36,-1 43,-3 75,-14 97,-35 21,-21 34,-53 38,-98 31,73 60,122 89,148l-428 27 54 -50 -27 -428 -60 -49zm502 494l-17 38 -428 27 -11 -11 434 -27 11 -26c-33,-35 -59,-75 -80,-119l-2 -5 13 5 4 6c20,40 45,76 72,108l4 4zm435 -526l-6 8c-28,34 -50,74 -66,118 -3,-6 -5,-10 -6,-14 -16,-32 -32,-54 -49,-63 -17,-10 -48,-14 -93,-14 -21,0 -45,1 -74,3l1 189 26 0 -1 -168c20,-2 40,-3 59,-3 35,0 61,3 78,11 16,7 31,21 44,43 -4,-3 -7,-5 -8,-7 -23,-17 -39,-27 -49,-31 -10,-3 -29,-4 -58,-4 -9,0 -25,1 -48,2l-8 0 1 157 76 0 53 -74 1 177 -54 -68 -111 1 1 230 26 0 -2 -211 90 -1 11 10 -91 1 2 201c56,0 96,-5 119,-13 24,-8 42,-24 56,-47l21 -38c1,-1 3,-4 5,-9 7,30 16,54 27,72 11,18 28,39 53,63l-460 4 62 -48 -2 -184c-23,3 -43,10 -62,22l-6 -9c17,-12 40,-20 68,-23l0 -20c-4,0 -8,0 -10,0 -28,0 -53,10 -76,30 12,-43 41,-65 86,-65l-1 -176 -63 -49 438 -3zm20 29l-3 3c-33,46 -55,83 -66,114l-7 -9c18,-42 41,-81 70,-117l6 9zm-120 138l1 181 -10 -5 -1 -182 10 6zm172 357l-21 37 -448 3 -7 -11 450 -3 14 -26c-40,-36 -68,-75 -84,-116l13 5c15,35 41,69 77,104l6 7zm597 -489l-60 54 -26 421 47 51 -188 -12 59 -44 18 -276 -152 349 -40 -2 -2 -11 35 2 161 -373 4 -63 -179 412 -29 -2 -91 -338 -14 217c-1,29 -1,50 2,62 3,12 12,26 25,41l34 50 -215 -14 -7 -11 202 12 -14 -23 -183 -12 9 -4c31,-15 52,-30 63,-47 11,-16 17,-43 19,-80l22 -339 -51 -54 212 13 -62 50 94 351 17 -35 -86 -311 56 -37 8 8 -53 33 79 292 124 -286 -46 -57 208 13zm-471 69l-18 294c-3,45 0,76 7,94 8,17 25,30 52,40l-3 -7c-26,-20 -38,-47 -36,-82l2 -31 15 -242 -19 -66zm492 -35l-49 30 -26 414 67 85 -218 -13 -5 -12 198 13 -53 -68 27 -427 51 -30 8 8zm524 39l-8 7c-32,30 -59,66 -82,108 -1,-7 -3,-12 -4,-15 -10,-35 -23,-58 -39,-70 -16,-12 -46,-21 -90,-27 -20,-3 -45,-5 -73,-8l-26 188 25 3 23 -166c21,1 40,3 59,5 35,5 60,12 75,22 16,10 28,26 38,49 -3,-3 -6,-6 -7,-7 -20,-21 -34,-33 -44,-38 -9,-5 -28,-9 -57,-13 -9,-1 -25,-3 -47,-5l-9 -1 -21 156 75 10 63 -65 -24 175 -44 -75 -110 -15 -32 228 25 4 29 -209 89 12 9 11 -89 -12 -28 199c56,8 96,9 120,5 25,-5 45,-18 62,-39l27 -34c1,-2 3,-5 6,-9 3,31 8,56 16,76 8,19 23,42 43,70l-456 -64 69 -38 25 -182c-23,-1 -45,4 -65,13l-4 -10c18,-9 41,-14 70,-13l3 -19c-5,-2 -8,-2 -10,-3 -27,-3 -54,3 -80,20 19,-41 50,-58 95,-52l24 -175 -55 -57 434 60zm15 31l-3 3c-39,40 -67,75 -82,103l-6 -9c24,-40 53,-75 87,-106l4 9zm-138 119l-25 180 -10 -7 25 -179 10 6zm119 379l-26 33 -444 -61 -5 -12 445 62 17 -24c-34,-42 -56,-84 -66,-127l12 7c10,36 31,75 61,114l6 8zm598 -388c-34,8 -58,17 -70,28 -18,17 -33,46 -43,86l-7 26 -90 351 -67 -18 -94 -413 -56 217 -5 17 -10 59c-1,28 6,50 21,68l3 4c-34,-22 -42,-66 -24,-132l9 -37 56 -218 -10 -47 -59 229c-19,73 -27,122 -23,147 4,25 22,47 54,66l25 46 -215 -55 -4 -13 199 52 -15 -28 -185 -47c36,-4 61,-14 77,-31 15,-17 29,-49 42,-97l82 -318 -42 -58 202 52 -67 23 96 426 12 -48 -82 -364 65 -24 6 10 -58 20 75 336 48 -186 5 -21c12,-46 16,-78 13,-95 -4,-18 -19,-37 -45,-59l181 46zm6 33l-10 10c-22,0 -38,5 -48,16 -11,11 -20,32 -28,62l-106 411 -85 -22 -3 -12 80 20 102 -395c10,-38 21,-63 35,-75 13,-12 35,-17 63,-15zm495 201c-21,10 -41,22 -58,37 -34,28 -55,45 -65,51l-3 1c1,-3 1,-5 1,-7 5,-25 7,-43 7,-54 1,-11 -2,-22 -6,-34 -12,-32 -32,-55 -60,-69 -26,-14 -52,-18 -76,-13 -25,5 -43,19 -55,40 -21,41 -5,85 48,132l54 47c76,68 96,137 58,208 -21,40 -53,65 -97,76 -45,11 -89,5 -133,-18 -27,-15 -56,-35 -86,-61l-37 -33c-15,-13 -28,-23 -39,-29 -15,-8 -33,-11 -53,-10l0 -7c54,-29 97,-61 131,-96l6 6c-15,40 -16,78 -1,112 14,35 42,63 83,85 32,17 62,23 89,18 27,-5 47,-20 61,-46 15,-29 15,-60 -2,-93 -12,-24 -45,-57 -98,-100 -41,-33 -66,-66 -76,-97 -9,-32 -4,-66 15,-103 21,-39 51,-62 91,-72 40,-9 82,-2 126,21 28,15 59,38 91,68 15,14 27,23 36,28 12,6 27,9 45,8l3 4zm15 27l-7 4c-18,11 -35,23 -50,34 -36,27 -56,42 -61,45l-3 2 -7 -9 4 -2c15,-13 36,-28 63,-47l50 -35 4 -2 7 10zm-145 16c-11,-42 -32,-72 -63,-88 -19,-10 -37,-13 -55,-8 -17,4 -31,14 -39,31 -10,18 -7,43 8,75l2 3 -4 2c-24,-31 -29,-60 -15,-87 10,-19 25,-31 45,-36 20,-4 40,-1 62,11 21,11 37,25 48,42 11,17 16,35 15,55l-4 0zm8 189c20,42 18,85 -5,128 -24,47 -63,76 -116,89 -53,14 -105,7 -156,-20 -26,-14 -48,-30 -67,-46l-50 -45c-12,-11 -26,-20 -41,-28 -14,-8 -28,-11 -43,-12l2 -13c15,1 30,5 43,12 14,7 30,18 46,32l49 44c20,17 42,32 66,45 49,26 98,32 149,19 50,-13 87,-41 110,-85 20,-37 23,-76 12,-118l1 -2zm-314 -32c-14,48 -7,92 23,130l-2 3c-38,-37 -49,-82 -32,-137l11 4zm17 -142l8 13c1,19 18,43 52,73l50 45c35,31 57,54 66,68 10,14 13,30 11,47l-3 0c-4,-18 -11,-33 -21,-46 -10,-12 -30,-32 -62,-60 -46,-40 -75,-69 -88,-87 -14,-18 -18,-36 -13,-53z"/>
   <path class="fil2" d="M2880 1119c1289,0 2334,283 2334,632 0,113 -109,218 -300,310l-4068 0c-191,-92 -300,-197 -300,-310 0,-349 1045,-632 2334,-632z"/>
  </g>
 </g>
</svg>
