<?xml version="1.0" encoding="UTF-8"?>
<svg version="1.1" xmlns="http://www.w3.org/2000/svg" width="512" height="512">
<path d="M0 0 C1.25103516 -0.02900391 1.25103516 -0.02900391 2.52734375 -0.05859375 C6.12200968 0.64483086 7.50117226 1.7839805 10.0625 4.4375 C11.96358879 7.59961251 13.50285082 10.90909785 15.0625 14.25 C26.94455778 38.80231514 41.04351406 62.34434124 56.78027344 84.62158203 C58.01967359 86.37684828 59.24876343 88.13895122 60.4765625 89.90234375 C70.17366453 103.74347264 80.63107325 117.03504899 91.67529297 129.82373047 C93.17015118 131.56273307 94.65034081 133.31353472 96.12890625 135.06640625 C100.99237599 140.8162838 105.87244628 146.41738658 111.28515625 151.6640625 C113.06117431 153.43617723 114.68684803 155.27726147 116.3125 157.1875 C122.88907612 164.81753225 130.1446637 171.94928265 137.81640625 178.47265625 C140.90762815 181.17680341 143.88166734 184.00092112 146.875 186.8125 C151.97261385 191.58933751 157.17333391 196.10891289 162.66015625 200.4375 C170.75009106 207.17253516 170.75009106 207.17253516 171.5625 213.0625 C171.45341298 217.73645934 169.61309208 219.97204983 166.43359375 223.25390625 C162.57452274 226.80781184 158.56425095 230.16795983 154.52734375 233.515625 C149.38500877 237.80740247 144.52824153 242.4062494 139.63574219 246.97753906 C138.12447691 248.37998574 136.60092208 249.76715569 135.0703125 251.1484375 C125.21192237 260.06544289 115.42288152 269.23641327 106.82421875 279.39453125 C104.97178625 281.54269577 103.05413446 283.62355697 101.12402344 285.7019043 C95.51070951 291.75119451 90.2203676 297.99229684 85.0625 304.4375 C84.14009625 305.56833957 83.21687804 306.69851515 82.29296875 307.828125 C74.48512729 317.41883898 67.18836592 327.33205286 60.0625 337.4375 C59.34513672 338.45263672 59.34513672 338.45263672 58.61328125 339.48828125 C42.47482613 362.40759986 28.40897003 386.45274554 15.78173828 411.46484375 C14.94618408 413.10646484 14.94618408 413.10646484 14.09375 414.78125 C13.35995117 416.23821289 13.35995117 416.23821289 12.61132812 417.72460938 C10.21931369 421.91440515 7.81346762 425.90042224 3.0625 427.4375 C-0.6345803 427.91972787 -2.51302892 427.65658185 -5.84375 425.9375 C-9.77191941 422.76322169 -11.39575966 419.54825794 -13.5625 415.0625 C-14.43324121 413.34030826 -15.30570675 411.6189875 -16.1796875 409.8984375 C-16.63053711 409.00092773 -17.08138672 408.10341797 -17.54589844 407.17871094 C-36.55811275 369.72798421 -60.06920532 334.68809294 -86.9375 302.4375 C-87.4128418 301.86306152 -87.88818359 301.28862305 -88.37792969 300.69677734 C-94.83327985 292.90202108 -101.56454486 285.40933923 -108.47314453 278.01513672 C-109.88839866 276.49039977 -111.28880499 274.95361533 -112.68359375 273.41015625 C-121.27184648 263.91222982 -130.08585875 254.52954425 -139.859375 246.234375 C-142.54962959 243.90821502 -145.14396777 241.48182772 -147.75 239.0625 C-151.65567075 235.4419463 -155.64531465 232.009909 -159.8125 228.6875 C-171.12253673 219.47252072 -171.12253673 219.47252072 -171.75 213.5 C-170.89842869 204.41077969 -160.09940806 198.03193397 -153.62109375 192.578125 C-148.44590895 188.20152124 -143.51094246 183.57219062 -138.55957031 178.94628906 C-136.90937957 177.41134343 -135.24938466 175.88775005 -133.5859375 174.3671875 C-124.98326233 166.49801546 -116.49209471 158.56150701 -108.90625 149.6875 C-106.85988114 147.34879273 -104.75385611 145.07714249 -102.63256836 142.80664062 C-97.66937858 137.49075644 -92.8848018 132.0984826 -88.33203125 126.421875 C-86.55509315 124.20722458 -84.76254198 122.01257619 -82.94921875 119.828125 C-64.34694896 97.34708406 -47.34025959 72.83229722 -32.9375 47.4375 C-32.42268066 46.53354492 -31.90786133 45.62958984 -31.37744141 44.69824219 C-23.47766436 30.80808175 -23.47766436 30.80808175 -15.95703125 16.7109375 C-15.50642334 15.83727539 -15.05581543 14.96361328 -14.59155273 14.06347656 C-13.76261202 12.44261978 -12.94252619 10.81719155 -12.13305664 9.18652344 C-9.20376733 3.43493316 -6.93323312 0.01068295 0 0 Z " fill="currentColor" transform="translate(255.9375,42.5625)"/>
</svg>
